<svg id="visual" viewBox="0 0 900 600" width="900" height="600" xmlns="http://www.w3.org/2000/svg" xmlns:xlink="http://www.w3.org/1999/xlink" version="1.1"><rect x="0" y="0" width="900" height="600" fill="#0f5d99"></rect><defs><linearGradient id="grad1_0" x1="33.3%" y1="100%" x2="100%" y2="0%"><stop offset="20%" stop-color="#031b40" stop-opacity="1"></stop><stop offset="80%" stop-color="#031b40" stop-opacity="1"></stop></linearGradient></defs><defs><linearGradient id="grad1_1" x1="33.3%" y1="100%" x2="100%" y2="0%"><stop offset="20%" stop-color="#031b40" stop-opacity="1"></stop><stop offset="80%" stop-color="#0f5d99" stop-opacity="1"></stop></linearGradient></defs><defs><linearGradient id="grad2_0" x1="0%" y1="100%" x2="66.7%" y2="0%"><stop offset="20%" stop-color="#031b40" stop-opacity="1"></stop><stop offset="80%" stop-color="#031b40" stop-opacity="1"></stop></linearGradient></defs><defs><linearGradient id="grad2_1" x1="0%" y1="100%" x2="66.7%" y2="0%"><stop offset="20%" stop-color="#0f5d99" stop-opacity="1"></stop><stop offset="80%" stop-color="#031b40" stop-opacity="1"></stop></linearGradient></defs><g transform="translate(900, 600)"><path d="M-486.7 0C-476 -36.8 -465.3 -73.5 -442.6 -101C-419.9 -128.5 -385.3 -146.7 -378.4 -182.2C-371.5 -217.8 -392.4 -270.7 -380.6 -303.5C-368.7 -336.3 -324.1 -348.9 -286.8 -359.6C-249.5 -370.3 -219.4 -379.1 -190.9 -396.4C-162.5 -413.8 -135.7 -439.8 -104.1 -456.3C-72.6 -472.8 -36.3 -479.8 0 -486.7L0 0Z" fill="#0d3a6b"></path><path d="M-243.4 0C-238 -18.4 -232.7 -36.8 -221.3 -50.5C-210 -64.3 -192.6 -73.3 -189.2 -91.1C-185.8 -108.9 -196.2 -135.3 -190.3 -151.7C-184.4 -168.1 -162.1 -174.5 -143.4 -179.8C-124.7 -185.2 -109.7 -189.5 -95.5 -198.2C-81.2 -206.9 -67.8 -219.9 -52.1 -228.1C-36.3 -236.4 -18.1 -239.9 0 -243.4L0 0Z" fill="#031b40"></path></g><g transform="translate(0, 0)"><path d="M486.7 0C466.4 33.6 446 67.1 428 97.7C410 128.2 394.2 155.8 377.5 181.8C360.8 207.8 343 232.2 328.4 261.9C313.7 291.5 302.2 326.5 281.8 353.4C261.4 380.3 232 399.2 202.2 419.9C172.4 440.6 142.1 463.1 108.3 474.5C74.5 486 37.3 486.4 0 486.7L0 0Z" fill="#0d3a6b"></path><path d="M243.4 0C233.2 16.8 223 33.6 214 48.8C205 64.1 197.1 77.9 188.8 90.9C180.4 103.9 171.5 116.1 164.2 130.9C156.9 145.8 151.1 163.2 140.9 176.7C130.7 190.1 116 199.6 101.1 209.9C86.2 220.3 71 231.5 54.2 237.3C37.3 243 18.6 243.2 0 243.4L0 0Z" fill="#031b40"></path></g></svg>