<?xml version="1.0" standalone="no"?><svg xmlns="http://www.w3.org/2000/svg" viewBox="0 0 1440 320"><path fill="#0099ff" fill-opacity="1" d="M0,288L40,256C80,224,160,160,240,160C320,160,400,224,480,245.3C560,267,640,245,720,245.3C800,245,880,267,960,240C1040,213,1120,139,1200,96C1280,53,1360,43,1400,37.3L1440,32L1440,320L1400,320C1360,320,1280,320,1200,320C1120,320,1040,320,960,320C880,320,800,320,720,320C640,320,560,320,480,320C400,320,320,320,240,320C160,320,80,320,40,320L0,320Z"></path></svg>